<?xml version="1.0" standalone="no"?>
<!DOCTYPE svg PUBLIC "-//W3C//DTD SVG 20010904//EN"
 "http://www.w3.org/TR/2001/REC-SVG-20010904/DTD/svg10.dtd">
<svg version="1.0" xmlns="http://www.w3.org/2000/svg"
 width="1214.000000pt" height="824.000000pt" viewBox="0 0 1214.000000 824.000000"
 preserveAspectRatio="xMidYMid meet">

<g transform="translate(0.000000,824.000000) scale(0.100000,-0.100000)"
fill="#000000" stroke="none">
<path d="M5871 6656 c-6 -7 -22 -11 -36 -8 -15 2 -25 0 -25 -7 0 -6 -17 -11
-38 -11 -39 0 -92 -19 -92 -32 0 -5 -16 -8 -35 -8 -22 0 -44 -8 -57 -20 -12
-11 -28 -20 -36 -20 -7 0 -28 -11 -45 -24 -18 -13 -42 -27 -54 -31 -13 -3 -23
-10 -23 -14 0 -5 -13 -14 -29 -21 -16 -6 -32 -18 -35 -26 -3 -8 -12 -14 -19
-14 -8 0 -21 -7 -28 -16 -7 -9 -23 -20 -36 -25 -13 -5 -23 -15 -23 -24 0 -8
-9 -15 -19 -15 -11 0 -26 -8 -33 -18 -7 -10 -21 -21 -30 -25 -10 -3 -18 -13
-18 -22 0 -8 -9 -15 -20 -15 -13 0 -20 -7 -20 -20 0 -11 -7 -20 -15 -20 -18 0
-74 -59 -75 -77 0 -7 -7 -13 -15 -13 -20 0 -65 -45 -65 -65 0 -12 -14 -15 -75
-15 -43 0 -75 4 -75 10 0 6 -20 10 -45 10 -25 0 -45 5 -45 10 0 6 -82 10 -225
10 -130 0 -234 -4 -245 -10 -11 -5 -29 -14 -40 -20 -11 -5 -38 -10 -60 -10
-22 0 -40 -4 -40 -10 0 -5 -11 -10 -25 -10 -14 0 -25 -4 -25 -10 0 -5 -10 -10
-23 -10 -13 0 -33 -9 -45 -20 -12 -11 -31 -20 -43 -20 -12 0 -23 -8 -26 -20
-3 -11 -14 -20 -24 -20 -11 0 -29 -11 -41 -25 -12 -14 -25 -25 -30 -25 -5 0
-18 -9 -30 -20 -12 -11 -28 -20 -35 -20 -7 0 -13 -7 -13 -16 0 -8 -22 -37 -50
-64 -27 -27 -50 -56 -50 -64 0 -9 -4 -16 -9 -16 -13 0 -81 -97 -81 -115 0 -8
-4 -15 -10 -15 -5 0 -10 -6 -10 -13 0 -7 -9 -23 -20 -35 -11 -12 -20 -30 -20
-41 0 -11 -4 -23 -10 -26 -5 -3 -10 -15 -10 -26 0 -10 -4 -19 -10 -19 -5 0
-10 -9 -10 -20 0 -11 -4 -20 -10 -20 -5 0 -10 -11 -10 -25 0 -14 -4 -25 -10
-25 -5 0 -10 -11 -10 -24 0 -14 -4 -28 -10 -31 -5 -3 -10 -16 -10 -29 0 -12
-4 -26 -8 -31 -5 -6 -21 -50 -38 -100 -16 -49 -32 -91 -36 -93 -5 -2 -8 -12
-8 -22 0 -10 -4 -22 -10 -25 -5 -3 -10 -17 -10 -30 0 -13 -4 -27 -10 -30 -5
-3 -10 -19 -10 -36 0 -16 -4 -29 -8 -29 -5 0 -15 -22 -22 -50 -7 -27 -17 -50
-22 -50 -4 0 -8 -8 -8 -18 0 -22 -22 -72 -32 -72 -5 0 -8 -7 -8 -15 0 -15 -19
-55 -31 -65 -3 -3 -13 -18 -22 -35 -8 -16 -34 -50 -56 -75 -23 -24 -41 -50
-41 -57 0 -7 -3 -13 -8 -13 -4 0 -34 -25 -67 -55 -69 -65 -103 -72 -169 -36
-75 42 -143 43 -236 4 -36 -16 -113 -102 -128 -144 -14 -41 -16 -141 -3 -167
5 -9 15 -30 22 -47 8 -16 25 -39 39 -50 14 -11 33 -28 42 -37 10 -10 24 -18
31 -18 7 0 18 -5 24 -11 16 -16 166 -13 195 3 35 20 111 100 127 133 7 17 17
38 22 47 5 10 9 30 9 44 0 38 30 59 102 73 35 7 73 17 86 22 13 5 36 9 52 9
17 0 30 5 30 10 0 6 13 10 29 10 17 0 33 5 36 10 3 6 21 10 40 10 19 0 37 5
40 10 3 6 19 10 36 10 16 0 29 5 29 10 0 6 18 10 40 10 22 0 40 3 40 8 0 10
74 32 110 32 16 0 30 4 30 8 0 5 19 14 43 21 23 7 65 22 92 33 28 11 63 23 80
26 16 3 43 13 60 23 16 11 42 19 58 19 15 0 27 5 27 10 0 6 9 10 19 10 11 0
23 5 26 10 3 6 22 10 41 10 19 0 34 5 34 10 0 6 7 10 15 10 8 0 15 5 15 10 0
6 11 10 24 10 14 0 28 5 31 10 3 6 15 10 26 10 10 0 19 5 19 10 0 6 14 10 31
10 17 0 44 9 59 20 16 11 42 23 58 26 17 4 40 15 51 25 11 11 30 19 41 19 12
0 28 7 37 15 8 9 28 19 44 22 15 3 36 14 45 24 9 11 27 19 39 19 12 0 31 9 43
20 12 11 30 20 40 20 10 0 28 9 40 20 12 11 28 20 37 20 9 0 31 11 49 25 18
14 39 25 48 25 8 0 24 9 36 20 12 11 28 20 36 20 9 0 21 9 28 20 7 11 24 20
38 20 14 0 32 9 40 20 8 11 21 20 30 20 9 0 22 9 30 20 8 11 19 20 25 20 5 0
21 9 35 20 14 11 32 20 41 20 9 0 29 11 45 25 16 14 34 25 39 25 6 0 17 9 25
20 8 11 25 20 37 20 13 0 28 9 35 20 7 11 22 20 34 20 11 0 29 9 39 20 10 11
23 20 30 20 6 0 20 8 31 18 10 10 41 28 67 41 27 13 60 33 75 45 15 12 39 28
55 35 15 8 27 18 27 23 0 4 11 8 23 8 13 0 32 9 42 20 10 11 25 20 33 20 8 0
22 8 31 18 9 11 33 25 54 31 21 7 41 19 44 27 8 22 49 16 81 -11 33 -27 52
-32 52 -12 0 6 6 3 12 -8 18 -30 35 -45 52 -45 9 0 16 -4 16 -10 0 -5 7 -10
15 -10 8 0 15 -4 15 -10 0 -5 11 -10 25 -10 14 0 30 -9 37 -20 7 -11 20 -20
29 -20 8 0 25 -9 36 -20 12 -10 33 -22 46 -25 14 -4 28 -13 31 -21 3 -8 14
-14 24 -14 10 0 29 -11 42 -25 13 -14 31 -25 40 -25 8 0 22 -9 30 -20 8 -11
20 -20 28 -20 7 0 22 -9 34 -20 12 -11 31 -20 42 -20 12 0 27 -9 34 -20 7 -11
19 -20 28 -20 8 0 26 -11 40 -25 14 -14 33 -25 43 -25 10 0 26 -9 36 -20 10
-11 26 -20 37 -20 10 0 18 -3 18 -8 0 -4 18 -18 40 -32 22 -14 40 -28 40 -32
0 -5 11 -8 25 -8 14 0 35 -9 47 -20 12 -11 32 -20 44 -20 12 0 27 -7 35 -16 7
-8 26 -22 43 -31 17 -9 35 -22 39 -29 4 -8 19 -14 32 -14 14 0 25 -4 25 -10 0
-5 7 -10 15 -10 8 0 15 -4 15 -10 0 -5 10 -10 23 -10 13 0 33 -9 45 -20 12
-11 32 -20 44 -20 13 0 30 -9 38 -20 8 -11 24 -20 35 -20 11 0 31 -9 45 -20
14 -11 34 -20 45 -20 11 0 28 -9 37 -19 9 -10 34 -22 56 -26 22 -3 48 -15 58
-26 10 -11 30 -19 51 -19 18 0 33 -4 33 -10 0 -5 7 -10 15 -10 8 0 15 -4 15
-10 0 -5 15 -10 33 -10 19 0 42 -8 55 -20 13 -12 35 -20 57 -20 19 0 35 -4 35
-10 0 -5 7 -10 15 -10 8 0 15 -4 15 -10 0 -5 15 -10 33 -10 17 0 47 -9 65 -20
18 -11 41 -20 52 -20 11 0 37 -9 57 -20 21 -11 53 -23 73 -27 19 -3 50 -14 68
-25 18 -10 48 -18 67 -18 20 0 45 -5 58 -12 49 -25 58 -28 87 -28 16 0 30 -4
30 -10 0 -5 11 -10 25 -10 14 0 25 -4 25 -10 0 -5 20 -10 44 -10 25 0 48 -4
51 -10 3 -5 19 -10 36 -10 16 0 29 -4 29 -10 0 -5 11 -10 25 -10 13 0 50 -7
82 -16 32 -9 74 -19 94 -23 50 -11 73 -37 87 -100 13 -59 38 -99 91 -149 47
-44 58 -50 111 -52 132 -5 143 -3 198 46 81 71 102 115 102 207 0 91 -11 120
-64 171 -57 53 -75 64 -137 80 -44 12 -62 12 -99 2 -57 -16 -83 -27 -91 -39
-4 -5 -23 -9 -44 -10 -27 -1 -42 5 -55 21 -10 12 -23 22 -30 22 -6 0 -30 21
-53 46 -23 25 -52 57 -64 70 -13 13 -23 28 -23 33 0 6 -9 15 -20 21 -11 6 -20
15 -20 21 0 5 -8 19 -19 30 -24 26 -71 120 -71 142 0 9 -4 17 -10 17 -5 0 -10
9 -10 19 0 11 -4 23 -10 26 -5 3 -10 17 -10 31 0 13 -4 24 -10 24 -5 0 -10 13
-10 29 0 17 -4 33 -10 36 -5 3 -10 19 -10 35 0 16 -4 32 -10 35 -5 3 -10 17
-10 31 0 13 -3 24 -8 24 -8 0 -23 33 -43 95 -7 22 -16 45 -20 50 -13 18 -39
99 -39 123 0 12 -4 22 -10 22 -5 0 -10 7 -10 15 0 8 -5 25 -12 38 -24 48 -28
57 -28 77 0 11 -4 20 -10 20 -5 0 -10 11 -10 25 0 14 -11 37 -24 50 -13 13
-37 50 -52 82 -16 32 -32 60 -36 61 -4 2 -8 9 -8 16 0 6 -16 29 -35 49 -19 20
-35 44 -35 52 0 8 -9 15 -20 15 -13 0 -20 7 -20 20 0 13 -7 20 -20 20 -13 0
-20 7 -20 20 0 11 -7 20 -15 20 -8 0 -19 9 -25 20 -6 11 -17 20 -25 20 -9 0
-25 11 -37 25 -12 14 -30 25 -41 25 -10 0 -21 9 -24 20 -3 11 -14 20 -24 20
-11 0 -19 3 -19 8 0 11 -51 32 -77 32 -13 0 -23 5 -23 10 0 6 -9 10 -19 10
-11 0 -23 5 -26 10 -3 6 -21 10 -40 10 -19 0 -37 5 -40 10 -3 6 -19 10 -35 10
-16 0 -32 5 -35 10 -4 6 -93 10 -235 10 -142 0 -231 -4 -235 -10 -3 -5 -19
-10 -36 -10 -16 0 -29 -4 -29 -10 0 -6 -35 -10 -85 -10 -76 0 -85 2 -85 18 0
18 -94 112 -111 112 -4 0 -11 9 -14 20 -3 11 -12 20 -18 20 -7 0 -18 9 -25 20
-7 11 -17 20 -23 20 -6 0 -28 18 -49 40 -21 22 -46 40 -54 40 -9 0 -16 8 -16
20 0 13 -7 20 -19 20 -11 0 -21 4 -23 8 -6 14 -100 82 -114 82 -8 0 -14 3 -14
8 0 4 -20 18 -45 31 -25 13 -45 28 -45 32 0 5 -10 9 -23 9 -13 0 -33 9 -45 20
-12 11 -35 20 -52 20 -17 0 -40 9 -52 20 -15 14 -36 20 -65 20 -24 0 -43 5
-43 10 0 6 -13 10 -29 10 -17 0 -33 5 -36 10 -10 16 -290 13 -304 -4z m301
-87 c9 -5 33 -9 52 -9 20 0 36 -4 36 -10 0 -5 14 -10 30 -10 17 0 30 -4 30
-10 0 -5 7 -10 15 -10 20 0 169 -70 173 -81 2 -5 8 -9 14 -9 5 0 29 -13 53
-30 24 -16 46 -30 49 -30 3 0 16 -9 28 -19 13 -10 57 -46 98 -79 91 -73 260
-235 260 -249 0 -11 -28 -24 -95 -43 -22 -7 -53 -18 -68 -26 -16 -8 -35 -14
-43 -14 -8 0 -23 -4 -34 -10 -11 -5 -29 -14 -40 -20 -11 -5 -27 -10 -35 -10
-8 0 -15 -4 -15 -10 0 -5 -13 -10 -30 -10 -16 0 -30 -4 -30 -10 0 -5 -9 -10
-19 -10 -11 0 -23 -4 -26 -10 -3 -5 -15 -10 -26 -10 -10 0 -19 -4 -19 -10 0
-5 -9 -10 -20 -10 -11 0 -20 -3 -20 -8 0 -4 -18 -13 -41 -20 -22 -7 -57 -23
-77 -36 -20 -12 -54 -28 -74 -35 -21 -7 -38 -16 -38 -19 0 -9 -49 -32 -67 -32
-7 0 -13 -3 -13 -7 0 -10 -49 -33 -68 -33 -8 0 -12 -6 -9 -13 4 -10 -2 -13
-19 -9 -14 2 -24 0 -24 -7 0 -23 -92 -9 -120 19 -12 12 -93 50 -106 50 -8 0
-14 5 -14 10 0 6 -9 10 -20 10 -11 0 -20 4 -20 8 0 5 -26 19 -57 32 -32 12
-65 28 -73 34 -8 7 -28 18 -45 25 -16 7 -38 17 -47 22 -10 5 -25 9 -33 9 -8 0
-15 5 -15 10 0 6 -9 10 -20 10 -11 0 -20 5 -20 10 0 6 -11 10 -25 10 -14 0
-25 5 -25 10 0 6 -11 10 -24 10 -14 0 -28 5 -31 10 -3 6 -15 10 -26 10 -10 0
-19 3 -19 8 0 8 -70 32 -94 32 -7 0 -19 7 -26 15 -7 8 -23 15 -36 15 -30 0
-134 39 -134 50 0 11 142 152 200 200 23 19 54 45 69 58 14 13 38 31 53 40 16
9 28 20 28 24 0 4 7 8 15 8 8 0 15 5 15 10 0 6 7 10 15 10 8 0 15 5 15 10 0 6
7 10 15 10 8 0 15 4 15 8 0 5 21 20 48 33 26 13 49 27 52 31 7 9 87 43 123 52
15 3 27 11 27 16 0 6 14 10 30 10 17 0 30 4 30 9 0 27 345 44 392 20z m-1457
-589 c3 -5 26 -10 51 -10 34 0 44 -4 44 -17 0 -18 -38 -70 -92 -127 -21 -21
-38 -43 -38 -48 0 -6 -12 -22 -27 -36 -16 -15 -44 -48 -63 -73 -58 -76 -93
-119 -127 -156 -18 -19 -43 -49 -55 -66 -13 -18 -53 -63 -90 -102 -37 -38 -68
-73 -68 -77 0 -4 -25 -32 -55 -63 -30 -30 -55 -56 -55 -59 0 -5 -71 -76 -76
-76 -3 0 -20 -15 -38 -32 -44 -43 -172 -158 -216 -194 -19 -16 -36 -32 -38
-36 -2 -5 -9 -8 -16 -8 -6 0 -18 -9 -26 -20 -8 -11 -20 -20 -26 -20 -6 0 -25
-13 -42 -29 -17 -16 -49 -42 -71 -57 -23 -15 -41 -31 -41 -35 0 -5 -6 -9 -13
-9 -7 0 -23 -9 -35 -20 -12 -11 -26 -20 -32 -20 -5 0 -10 -4 -10 -10 0 -5 -5
-10 -10 -10 -6 0 -20 -9 -32 -20 -12 -11 -28 -20 -35 -20 -7 0 -13 -3 -13 -8
0 -4 -15 -13 -32 -21 -18 -8 -35 -18 -38 -22 -18 -25 -140 -82 -140 -64 0 11
24 55 30 55 3 0 12 16 20 35 8 19 17 35 22 35 4 0 8 7 8 15 0 8 5 15 10 15 6
0 10 11 10 25 0 14 5 25 10 25 6 0 10 9 10 20 0 11 5 20 10 20 6 0 10 14 10
30 0 17 3 30 8 30 4 0 18 35 31 78 14 42 30 86 36 97 7 11 23 55 36 97 13 43
27 78 32 78 4 0 7 11 7 24 0 14 5 28 10 31 6 3 10 17 10 30 0 13 5 27 10 30 6
3 10 17 10 31 0 13 5 24 10 24 6 0 10 14 10 30 0 17 5 30 10 30 6 0 10 11 10
25 0 14 5 25 10 25 6 0 10 9 10 20 0 11 5 20 10 20 6 0 10 6 10 14 0 14 40 96
51 106 3 3 19 28 35 55 16 28 46 68 66 90 21 22 38 43 38 47 0 10 43 52 87 85
21 15 45 35 53 43 18 18 69 49 93 57 9 3 17 9 17 14 0 5 9 9 20 9 11 0 20 5
20 10 0 6 14 10 30 10 17 0 30 5 30 10 0 6 13 10 29 10 17 0 33 5 36 10 3 6
24 10 45 10 21 0 42 5 45 10 4 6 90 10 225 10 135 0 221 -4 225 -10z m3060 0
c3 -5 26 -10 51 -10 24 0 44 -4 44 -10 0 -5 14 -10 30 -10 17 0 30 -4 30 -10
0 -5 14 -10 30 -10 17 0 30 -4 30 -10 0 -5 9 -10 20 -10 11 0 20 -4 20 -9 0
-5 8 -11 18 -14 58 -20 252 -177 252 -205 0 -5 12 -19 26 -33 14 -13 35 -41
47 -61 11 -21 24 -38 29 -38 4 0 8 -9 8 -20 0 -11 5 -20 10 -20 6 0 10 -6 10
-12 0 -7 9 -24 20 -38 11 -14 20 -35 20 -47 0 -13 5 -23 10 -23 6 0 10 -9 10
-20 0 -11 5 -20 10 -20 6 0 10 -11 10 -25 0 -14 5 -25 10 -25 6 0 10 -11 10
-24 0 -14 5 -28 10 -31 6 -3 10 -15 10 -26 0 -10 4 -27 9 -37 5 -9 19 -44 31
-77 12 -33 28 -73 36 -88 8 -16 14 -37 14 -48 0 -10 5 -19 10 -19 6 0 10 -13
10 -30 0 -16 5 -30 10 -30 6 0 10 -11 10 -25 0 -14 5 -25 10 -25 6 0 10 -13
10 -30 0 -16 5 -30 10 -30 6 0 10 -13 10 -30 0 -16 5 -30 10 -30 6 0 10 -13
10 -30 0 -16 5 -30 10 -30 6 0 10 -9 10 -20 0 -11 5 -20 10 -20 6 0 10 -6 10
-13 0 -18 24 -67 33 -67 4 0 7 -7 7 -15 0 -8 3 -15 8 -15 4 0 16 -18 26 -40
11 -22 23 -40 28 -40 4 0 8 -4 8 -10 0 -18 -28 -11 -80 20 -28 17 -55 30 -60
30 -6 0 -10 4 -10 8 0 5 -20 19 -45 32 -25 13 -45 27 -45 32 0 4 -8 8 -18 8
-10 0 -24 9 -32 20 -8 11 -19 20 -25 20 -6 0 -20 8 -31 18 -10 9 -46 35 -79
57 -33 22 -67 47 -75 55 -8 9 -31 27 -50 40 -19 13 -42 31 -50 40 -8 9 -31 27
-50 40 -19 14 -67 55 -107 93 -39 38 -82 76 -95 85 -29 21 -188 182 -221 225
-13 17 -50 59 -81 92 -32 33 -70 75 -84 94 -15 19 -44 52 -64 72 -21 21 -38
42 -38 47 0 5 -12 22 -27 38 -16 16 -40 45 -55 64 -15 19 -40 51 -57 70 -17
19 -31 38 -31 41 0 3 -27 35 -60 69 -59 63 -93 117 -84 132 3 4 22 8 42 8 20
0 44 5 52 10 20 13 437 13 445 0z m-2780 -60 c3 -5 19 -10 36 -10 16 0 29 -4
29 -10 0 -5 13 -10 29 -10 17 0 33 -4 36 -10 3 -5 17 -10 30 -10 13 0 27 -4
30 -10 3 -5 17 -10 31 -10 13 0 24 -4 24 -10 0 -5 9 -10 20 -10 11 0 28 -4 38
-9 9 -5 28 -13 42 -19 65 -26 178 -74 203 -87 16 -8 35 -15 43 -15 8 0 14 -4
14 -10 0 -5 6 -10 13 -10 18 0 67 -24 67 -32 0 -5 6 -8 13 -8 18 0 67 -24 67
-32 0 -5 10 -8 23 -8 12 0 33 -9 47 -20 14 -11 31 -20 38 -20 16 0 42 -24 42
-39 0 -6 -6 -11 -13 -11 -8 0 -22 -9 -32 -20 -10 -11 -26 -20 -36 -20 -10 0
-21 -4 -24 -10 -3 -5 -23 -17 -43 -27 -20 -9 -43 -23 -51 -31 -7 -7 -31 -21
-52 -30 -22 -9 -39 -20 -39 -24 0 -5 -9 -8 -20 -8 -11 0 -20 -4 -20 -8 0 -5
-12 -15 -27 -22 -16 -8 -41 -24 -58 -35 -16 -12 -50 -32 -75 -44 -25 -12 -65
-35 -90 -51 -25 -16 -51 -29 -57 -29 -7 -1 -13 -5 -13 -11 0 -5 -7 -10 -15
-10 -8 0 -15 -4 -15 -10 0 -5 -7 -10 -15 -10 -8 0 -15 -4 -15 -10 0 -5 -9 -10
-20 -10 -11 0 -20 -4 -20 -8 0 -4 -22 -19 -50 -33 -27 -13 -50 -27 -50 -31 0
-5 -6 -8 -12 -8 -7 0 -24 -9 -38 -20 -14 -11 -32 -20 -42 -20 -9 0 -18 -4 -20
-8 -3 -8 -75 -52 -125 -76 -13 -6 -23 -14 -23 -18 0 -5 -9 -8 -20 -8 -11 0
-20 -4 -20 -10 0 -5 -9 -10 -20 -10 -11 0 -20 -4 -20 -10 0 -5 -9 -10 -20 -10
-11 0 -20 -4 -20 -10 0 -5 -9 -10 -20 -10 -11 0 -20 -4 -20 -10 0 -5 -9 -10
-20 -10 -11 0 -20 -4 -20 -10 0 -5 -7 -10 -15 -10 -8 0 -30 -9 -50 -20 -20
-11 -42 -20 -50 -20 -8 0 -15 -4 -15 -9 0 -4 -21 -16 -47 -26 -27 -9 -61 -25
-78 -34 -16 -10 -51 -24 -77 -31 -27 -8 -48 -18 -48 -22 0 -4 -9 -8 -19 -8
-11 0 -23 -4 -26 -10 -3 -5 -17 -10 -31 -10 -13 0 -24 -4 -24 -10 0 -5 -9 -10
-20 -10 -11 0 -28 -4 -38 -9 -29 -15 -65 -29 -107 -42 -22 -7 -44 -17 -49 -21
-6 -4 -19 -8 -31 -8 -12 0 -25 -4 -30 -9 -6 -4 -62 -25 -125 -46 -63 -21 -119
-42 -124 -47 -6 -4 -19 -8 -30 -8 -21 0 -80 -17 -108 -31 -10 -5 -29 -9 -43
-9 -14 0 -25 -4 -25 -10 0 -5 -15 -10 -34 -10 -19 0 -38 -4 -41 -10 -3 -5 -22
-10 -41 -10 -19 0 -34 -4 -34 -10 0 -5 -18 -10 -39 -10 -22 0 -41 -5 -44 -12
-2 -7 -8 -10 -12 -6 -10 10 12 29 68 58 26 14 58 35 72 48 13 12 31 22 40 22
8 0 15 5 15 10 0 6 5 10 11 10 6 0 30 14 54 30 24 17 46 30 50 30 3 0 15 9 27
20 12 11 28 20 35 20 7 0 13 3 13 8 0 4 18 18 40 32 22 14 40 28 40 32 0 5 6
8 13 8 7 0 23 10 37 23 14 12 41 33 60 47 19 13 42 31 50 40 8 9 31 27 50 40
19 13 37 27 40 30 3 3 36 32 75 65 94 81 352 339 395 395 19 25 61 73 93 107
33 34 66 72 75 85 9 13 23 30 32 38 8 8 27 31 41 50 15 19 35 45 46 57 11 12
28 34 39 49 10 15 29 38 40 50 12 12 32 37 45 56 13 18 31 40 41 49 10 9 18
19 18 23 0 4 19 26 43 49 23 24 53 57 67 75 25 32 71 44 85 22z m2150 -26 c19
-20 35 -38 35 -40 0 -2 8 -13 18 -25 9 -11 25 -30 35 -42 10 -12 30 -37 45
-55 15 -18 46 -54 70 -79 23 -25 42 -50 42 -55 0 -5 6 -15 13 -22 33 -35 67
-77 67 -83 0 -5 19 -29 43 -55 23 -26 52 -59 64 -75 12 -15 56 -63 98 -107 41
-43 75 -81 75 -85 0 -10 257 -269 301 -303 19 -14 54 -45 79 -68 25 -23 58
-52 75 -63 16 -12 43 -34 59 -49 16 -16 33 -28 38 -28 5 0 19 -10 32 -22 12
-13 48 -41 80 -63 31 -22 69 -50 84 -62 15 -13 31 -23 35 -23 4 0 17 -9 29
-20 12 -11 28 -20 35 -20 7 0 13 -4 13 -10 0 -5 7 -10 15 -10 8 0 15 -4 15
-10 0 -5 6 -10 13 -10 7 0 23 -9 35 -20 12 -11 26 -20 32 -20 10 0 21 -7 53
-36 8 -7 33 -22 57 -34 45 -23 70 -43 70 -56 0 -5 -5 -3 -12 4 -7 7 -29 12
-50 12 -21 0 -38 5 -38 10 0 6 -15 10 -34 10 -19 0 -38 5 -41 10 -3 6 -22 10
-41 10 -19 0 -34 5 -34 10 0 6 -16 10 -35 10 -19 0 -35 5 -35 10 0 6 -13 10
-29 10 -17 0 -33 5 -36 10 -3 6 -19 10 -36 10 -16 0 -29 5 -29 10 0 6 -13 10
-28 10 -15 0 -32 4 -37 9 -6 5 -49 21 -97 36 -49 15 -88 31 -88 36 0 5 -13 9
-29 9 -17 0 -32 4 -35 8 -3 4 -28 14 -55 22 -28 7 -51 17 -51 22 0 4 -13 8
-30 8 -16 0 -30 5 -30 10 0 6 -11 10 -25 10 -14 0 -25 5 -25 10 0 6 -9 10 -19
10 -11 0 -23 5 -26 10 -3 6 -17 10 -31 10 -13 0 -24 5 -24 10 0 6 -9 10 -19
10 -11 0 -23 5 -26 10 -3 6 -17 10 -31 10 -13 0 -24 4 -24 8 0 4 -30 19 -66
32 -36 14 -70 31 -76 37 -6 7 -16 13 -23 13 -7 0 -39 14 -70 30 -31 17 -63 30
-71 30 -8 0 -14 5 -14 10 0 6 -9 10 -20 10 -11 0 -20 5 -20 10 0 6 -9 10 -20
10 -11 0 -20 5 -20 10 0 6 -9 10 -20 10 -11 0 -20 3 -20 8 0 4 -17 15 -37 25
-21 9 -65 33 -98 53 -33 19 -68 38 -77 41 -10 3 -18 8 -18 12 0 3 -21 17 -47
31 -27 13 -50 27 -53 31 -3 3 -20 12 -37 20 -18 8 -33 17 -33 21 0 5 -8 8 -18
8 -10 0 -24 9 -32 20 -8 11 -20 20 -28 20 -7 0 -33 14 -57 30 -24 17 -47 30
-50 30 -4 0 -27 14 -52 30 -24 17 -51 30 -59 30 -7 0 -14 5 -14 10 0 6 -18 18
-40 27 -22 10 -40 21 -40 25 0 5 -6 8 -14 8 -8 0 -16 3 -18 8 -1 4 -33 23 -70
42 -38 19 -68 38 -68 42 0 5 -7 8 -15 8 -14 0 -54 19 -65 30 -3 3 -27 19 -55
34 -27 16 -52 30 -54 32 -8 7 32 44 46 44 7 0 16 6 19 14 3 8 12 12 19 10 7
-3 16 -1 20 5 3 6 15 11 26 11 10 0 19 5 19 10 0 6 9 10 20 10 11 0 20 5 20
10 0 6 9 10 20 10 11 0 20 5 20 10 0 6 9 10 20 10 11 0 20 5 20 10 0 6 9 10
20 10 11 0 20 5 20 10 0 6 6 10 14 10 7 0 34 11 60 25 26 14 51 25 57 25 8 0
79 29 119 49 8 4 36 14 63 22 26 7 47 17 47 21 0 4 14 8 30 8 17 0 30 5 30 10
0 6 11 10 24 10 14 0 28 5 31 10 3 6 19 10 35 10 16 0 32 5 35 10 3 6 19 10
36 10 16 0 29 5 29 10 0 6 14 10 30 10 22 0 40 -10 65 -36z m-1155 -334 c0 -5
-4 -10 -10 -10 -5 0 -10 5 -10 10 0 6 5 10 10 10 6 0 10 -4 10 -10z m80 -40
c0 -5 -2 -10 -4 -10 -3 0 -8 5 -11 10 -3 6 -1 10 4 10 6 0 11 -4 11 -10z"/>
<path d="M6555 3561 c-3 -6 -30 -11 -60 -11 -30 0 -57 -4 -60 -10 -3 -5 -24
-10 -45 -10 -21 0 -42 -4 -45 -10 -3 -5 -19 -10 -36 -10 -16 0 -29 -4 -29 -10
0 -5 -9 -10 -20 -10 -11 0 -20 -4 -20 -10 0 -5 -6 -10 -14 -10 -30 0 -104 -47
-156 -100 -79 -79 -100 -125 -100 -214 0 -90 28 -153 94 -214 45 -42 195 -122
228 -122 9 0 19 -4 22 -9 3 -5 23 -11 43 -14 72 -11 108 -18 128 -27 11 -5 38
-11 60 -15 201 -30 328 -52 528 -90 21 -4 40 -12 43 -16 3 -5 14 -9 24 -9 38
0 126 -48 163 -88 33 -38 37 -48 37 -97 0 -62 -10 -86 -59 -132 -39 -38 -85
-63 -117 -63 -13 0 -25 -4 -28 -9 -19 -30 -441 -67 -490 -42 -11 6 -57 12
-101 15 -103 6 -168 16 -179 27 -6 5 -25 9 -43 9 -18 0 -41 4 -51 9 -9 5 -37
15 -62 22 -25 7 -77 27 -117 46 -81 38 -83 38 -83 19 0 -8 -13 -26 -30 -39
-16 -14 -30 -32 -30 -41 0 -8 -7 -22 -16 -30 -14 -14 -14 -18 0 -31 8 -8 19
-15 23 -15 5 0 28 -9 51 -20 22 -11 47 -20 55 -20 7 0 17 -4 23 -8 12 -10 65
-27 134 -42 30 -7 73 -18 95 -25 88 -29 273 -48 465 -48 96 0 311 17 316 25 3
4 27 8 55 8 27 0 49 4 49 9 0 5 15 12 33 16 55 12 157 48 157 57 0 4 9 8 20 8
11 0 20 4 20 9 0 5 16 15 35 22 19 7 35 17 35 21 0 4 4 8 10 8 21 0 59 49 103
133 31 59 29 169 -3 232 -13 25 -27 45 -32 45 -4 0 -8 5 -8 11 0 13 -38 49
-52 49 -4 0 -8 7 -8 15 0 8 -9 15 -19 15 -10 0 -45 14 -76 30 -31 17 -66 30
-76 30 -10 0 -19 5 -19 10 0 6 -10 10 -21 10 -12 0 -38 4 -58 10 -120 32 -199
47 -355 70 -39 5 -74 14 -80 20 -5 5 -33 10 -61 10 -28 0 -55 4 -60 9 -6 5
-30 12 -55 15 -84 10 -120 18 -120 27 0 5 -15 9 -34 9 -19 0 -38 5 -41 10 -3
6 -15 10 -26 10 -10 0 -19 5 -19 10 0 6 -7 10 -15 10 -8 0 -15 5 -15 10 0 6
-8 10 -18 10 -19 0 -47 28 -69 67 -21 38 -16 116 9 149 31 39 59 66 88 82 42
25 150 62 180 62 16 0 32 5 35 10 4 6 93 10 235 10 142 0 231 -4 235 -10 3 -5
23 -10 44 -10 21 0 51 -4 67 -9 16 -5 56 -15 89 -22 33 -7 67 -18 75 -24 16
-13 59 -25 99 -28 18 -2 29 7 44 33 10 19 22 37 26 40 3 3 12 17 20 32 11 22
12 30 1 43 -7 8 -20 15 -29 15 -9 0 -30 9 -47 19 -17 10 -51 21 -75 24 -24 3
-66 11 -94 17 -112 25 -192 32 -447 36 -181 4 -268 2 -273 -5z"/>
<path d="M1547 3552 c-16 -3 -17 -54 -15 -750 l3 -747 768 -3 767 -2 0 85 0
85 -609 0 c-546 0 -609 2 -615 16 -3 9 -6 308 -6 665 l0 649 -62 2 c-112 3
-214 3 -231 0z"/>
<path d="M3610 3552 c-7 -2 -10 -266 -10 -753 l0 -750 153 3 152 3 3 228 2
227 345 0 c200 0 345 4 345 9 0 5 44 12 98 15 128 7 195 16 207 27 5 5 21 9
35 9 14 0 30 4 36 9 5 5 34 16 64 26 69 22 167 73 200 103 14 13 37 31 53 40
15 9 27 22 27 29 0 7 4 13 9 13 16 0 76 124 89 185 14 64 5 134 -24 202 -8 17
-14 38 -14 47 0 9 -3 16 -7 16 -5 0 -21 19 -38 41 -52 71 -149 136 -289 193
-21 9 -47 16 -57 16 -11 0 -19 4 -19 9 0 5 -17 11 -37 15 -21 3 -65 10 -98 17
-33 6 -188 13 -347 15 -504 7 -868 9 -878 6z m1120 -180 c30 -6 72 -14 92 -18
21 -3 43 -12 49 -20 6 -8 17 -14 24 -14 29 0 101 -49 150 -102 51 -55 59 -72
72 -161 11 -77 -55 -211 -121 -246 -14 -8 -26 -18 -26 -23 0 -4 -9 -8 -20 -8
-11 0 -20 -4 -20 -10 0 -5 -9 -10 -19 -10 -11 0 -23 -4 -26 -10 -3 -5 -19 -10
-36 -10 -16 0 -29 -4 -29 -9 0 -10 -44 -17 -190 -30 -109 -10 -680 -14 -704
-5 -14 5 -16 46 -16 350 l0 345 383 -4 c221 -3 405 -9 437 -15z"/>
<path d="M8327 3552 l-27 -3 2 -747 3 -747 142 -3 143 -3 2 542 c2 421 6 543
15 546 13 5 103 -82 183 -176 52 -60 82 -94 155 -171 29 -30 85 -93 125 -140
40 -47 100 -115 134 -151 83 -89 116 -127 117 -136 0 -5 22 -26 49 -48 26 -22
50 -48 53 -57 4 -15 17 -18 74 -18 62 0 72 3 91 25 12 14 26 25 32 25 5 0 10
6 10 13 0 7 16 31 36 53 19 21 59 65 87 97 29 32 77 86 108 120 31 34 70 77
85 96 16 18 50 55 77 82 26 27 47 51 47 53 0 8 129 151 208 232 23 24 42 47
42 51 0 3 17 22 37 40 27 25 38 31 45 21 4 -7 8 -255 8 -550 l0 -538 23 -5
c12 -3 76 -4 142 -3 l120 3 3 742 2 742 -21 12 c-15 8 -54 9 -127 4 -98 -6
-109 -9 -144 -38 -21 -16 -41 -39 -44 -51 -4 -12 -30 -46 -58 -76 -28 -31 -73
-82 -101 -114 -27 -31 -66 -75 -85 -97 -40 -44 -110 -123 -167 -187 -21 -24
-47 -54 -58 -66 -11 -12 -36 -41 -55 -65 -56 -68 -69 -83 -114 -131 -23 -25
-62 -69 -86 -99 -83 -101 -106 -121 -139 -121 -17 0 -31 4 -31 8 0 4 -26 35
-57 69 -52 55 -97 105 -181 202 -15 18 -53 60 -84 95 -32 34 -58 68 -58 74 0
7 -7 12 -15 12 -8 0 -15 4 -15 8 0 5 -17 27 -37 49 -21 23 -56 62 -78 87 -22
25 -64 72 -92 103 -29 32 -53 61 -53 64 0 5 -39 49 -173 191 l-78 83 -97 0
c-53 1 -109 -1 -125 -3z"/>
</g>
</svg>
