<?xml version="1.0" standalone="no"?>
<!DOCTYPE svg PUBLIC "-//W3C//DTD SVG 20010904//EN"
 "http://www.w3.org/TR/2001/REC-SVG-20010904/DTD/svg10.dtd">
<svg version="1.0" xmlns="http://www.w3.org/2000/svg"
 width="215.000000pt" height="235.000000pt" viewBox="0 0 215.000000 235.000000"
 preserveAspectRatio="xMidYMid meet">

<g transform="translate(0.000000,235.000000) scale(0.100000,-0.100000)"
fill="#000000" stroke="none">
<path d="M828 2056 c-48 -13 -62 -21 -110 -65 -27 -24 -29 -44 -5 -36 54 16
67 15 67 -5 0 -20 1 -20 30 -5 32 17 90 89 90 112 0 16 -10 16 -72 -1z"/>
<path d="M1230 2065 c0 -3 7 -20 16 -38 18 -35 43 -59 88 -83 26 -15 28 -15
23 0 -9 22 3 26 46 16 20 -4 37 -4 37 0 0 13 -72 72 -104 85 -38 15 -106 28
-106 20z"/>
<path d="M1521 1987 c8 -109 44 -175 101 -190 19 -5 20 -3 14 60 -12 120 -28
160 -79 192 -19 12 -36 21 -38 21 -3 0 -2 -37 2 -83z"/>
<path d="M580 2053 c-37 -15 -67 -67 -75 -128 -16 -138 -13 -144 41 -109 37
25 53 63 63 151 10 95 8 100 -29 86z"/>
<path d="M725 1943 c-89 -20 -97 -24 -111 -58 -8 -19 -27 -50 -44 -68 l-30
-34 45 8 c55 10 81 23 118 58 29 26 57 71 57 91 0 10 -2 11 -35 3z"/>
<path d="M1370 1943 c0 -2 9 -21 20 -43 26 -51 96 -98 157 -107 l48 -6 -32 31
c-17 18 -34 45 -38 61 -4 17 -16 33 -33 41 -27 12 -122 30 -122 23z"/>
<path d="M427 1850 c-41 -35 -62 -103 -51 -164 10 -64 16 -70 47 -46 16 13 33
41 42 72 17 57 20 168 5 168 -5 0 -25 -13 -43 -30z"/>
<path d="M940 1863 c-227 -46 -369 -220 -410 -504 -18 -121 -8 -351 19 -454
60 -230 192 -367 392 -406 88 -17 260 -7 328 20 200 80 309 254 341 544 20
177 -10 394 -74 532 -25 55 -53 94 -99 140 -75 75 -145 110 -262 131 -92 17
-144 16 -235 -3z m170 -268 l0 -265 -45 0 -45 0 0 265 0 265 45 0 45 0 0 -265z
m230 94 c0 -17 -4 -28 -10 -24 -5 3 -10 1 -10 -4 0 -6 9 -11 19 -11 26 0 43
-50 31 -90 l-9 -31 37 3 c32 2 37 0 38 -18 1 -12 5 -27 9 -34 7 -11 10 -9 16
6 6 14 8 15 8 3 1 -22 -31 -57 -48 -51 -10 3 -12 -3 -7 -25 7 -32 -6 -76 -30
-100 -23 -23 -30 -6 -11 26 9 16 17 37 17 46 0 14 -3 13 -18 -6 -10 -13 -22
-32 -25 -42 -7 -18 -34 -33 -43 -24 -4 3 8 23 25 44 21 27 29 45 25 61 -7 26
-10 26 -46 8 -16 -9 -28 -10 -28 -5 0 6 -5 7 -11 3 -6 -4 -9 -23 -6 -48 4 -34
2 -44 -13 -54 -11 -7 -21 -8 -25 -2 -3 5 -1 11 5 15 16 10 12 82 -6 99 -23 23
-34 10 -22 -25 13 -36 2 -51 -18 -25 -22 30 -18 87 6 93 11 3 17 9 14 14 -3 5
-1 9 4 9 5 0 7 11 4 25 -2 14 -8 25 -13 25 -5 0 -8 -5 -7 -11 2 -6 -3 -14 -9
-16 -8 -3 -13 4 -13 16 0 12 -5 30 -12 40 -6 10 -9 25 -5 33 7 21 57 30 64 12
3 -8 10 -14 17 -14 6 0 17 -13 24 -29 15 -33 42 -50 37 -23 -1 9 -7 16 -12 15
-6 -1 -10 11 -11 26 0 20 4 28 15 27 13 -1 16 9 16 47 -1 40 2 47 18 47 15 0
19 -7 19 -31z m-379 -82 c8 -235 6 -243 -59 -232 -22 4 -42 1 -56 -9 -13 -8
-27 -11 -32 -7 -5 5 -23 11 -41 14 -28 6 -35 3 -50 -23 -19 -33 -46 -49 -36
-22 3 9 10 23 16 29 6 9 4 15 -7 19 -23 9 -24 249 -1 258 9 3 58 5 110 5 52 0
99 3 105 6 6 4 15 18 21 32 16 42 27 16 30 -70z m299 43 c0 -5 -4 -10 -10 -10
-5 0 -10 5 -10 10 0 6 5 10 10 10 6 0 10 -4 10 -10z m-235 -363 c5 -19 14 -24
45 -25 33 -2 39 0 42 20 4 30 32 30 36 0 2 -15 9 -22 20 -20 11 2 18 -5 20
-21 3 -20 1 -23 -20 -18 -22 6 -24 4 -20 -23 4 -25 1 -30 -17 -30 -20 0 -25 8
-22 40 1 11 -10 15 -44 16 -39 0 -44 -2 -39 -18 3 -10 -1 -25 -9 -33 -13 -12
-17 -13 -27 0 -6 8 -9 23 -5 35 6 18 4 20 -19 14 -22 -5 -26 -3 -26 15 0 14 6
21 19 21 12 0 21 9 25 25 8 31 34 33 41 2z m-101 -74 c4 -15 3 -41 -3 -76 0
-4 -88 -6 -193 -5 l-193 3 -2 35 c-3 62 -10 60 196 60 172 0 190 -2 195 -17z
m676 -33 l0 -50 -197 0 -198 0 3 50 4 50 194 0 194 0 0 -50z m-510 -15 c3 -11
12 -20 20 -20 8 0 15 -9 15 -20 0 -14 -6 -19 -21 -18 -17 2 -20 -2 -16 -22 3
-17 -1 -27 -12 -31 -22 -8 -28 -1 -28 31 0 21 -4 24 -20 19 -16 -5 -19 -2 -16
18 2 16 9 22 21 20 10 -2 17 2 16 10 -3 29 2 39 18 36 9 -2 20 -12 23 -23z
m-238 -99 c-3 -20 3 -32 18 -43 19 -13 21 -22 17 -64 l-5 -49 34 0 c20 0 35
-5 36 -12 0 -7 2 -17 3 -23 2 -5 4 -17 5 -25 1 -8 6 -4 10 10 l8 25 1 -27 c1
-22 -5 -29 -25 -34 -21 -5 -25 -11 -21 -31 8 -42 -25 -113 -52 -113 -7 0 -3
17 9 40 27 54 25 68 -5 32 -14 -17 -25 -34 -25 -40 0 -5 -6 -15 -14 -21 -27
-23 -28 8 -2 40 27 32 33 63 16 89 -8 13 -10 12 -10 -4 0 -11 -3 -16 -6 -13
-4 3 -16 1 -27 -4 -15 -8 -22 -8 -28 2 -6 9 -9 -5 -9 -37 0 -34 -5 -56 -15
-64 -21 -17 -29 -7 -16 19 17 31 3 101 -20 101 -21 0 -24 -12 -10 -39 5 -9 6
-23 1 -30 -11 -18 -32 21 -36 66 -3 27 0 33 16 33 11 0 20 6 21 13 0 6 2 22 3
35 2 13 -1 25 -6 28 -4 3 -8 -4 -8 -15 0 -22 -19 -30 -21 -8 -2 18 -4 29 -13
59 -10 34 0 54 19 38 10 -8 14 -8 17 1 6 18 39 3 45 -21 8 -31 36 -26 31 5 -5
22 -2 25 14 19 17 -5 19 -1 18 23 -4 60 -1 75 18 71 12 -2 16 -11 14 -32z
m614 -148 l-1 -163 -75 -6 c-41 -4 -79 -3 -84 2 -19 17 -50 9 -72 -18 -12 -16
-26 -25 -30 -20 -4 4 -2 13 4 19 18 18 14 28 -9 28 -21 0 -21 2 -14 123 3 67
10 125 13 129 4 4 54 8 111 9 86 2 108 6 123 21 10 10 18 25 18 34 0 8 4 13 9
10 5 -3 8 -79 7 -168z m-691 112 c3 -5 -1 -10 -9 -10 -9 0 -16 5 -16 10 0 6 4
10 9 10 6 0 13 -4 16 -10z m335 -244 c0 -134 3 -251 6 -260 5 -13 -2 -16 -45
-16 l-51 0 0 260 0 260 45 0 45 0 0 -244z"/>
<path d="M1331 1623 c7 -12 15 -20 18 -17 3 2 -3 12 -13 22 -17 16 -18 16 -5
-5z"/>
<path d="M1320 1561 c0 -6 5 -13 10 -16 6 -3 10 1 10 9 0 9 -4 16 -10 16 -5 0
-10 -4 -10 -9z"/>
<path d="M1260 1531 c0 -6 5 -11 11 -11 5 0 7 -4 4 -10 -3 -5 0 -10 8 -10 8 0
18 7 21 16 3 9 2 12 -5 9 -5 -4 -16 -1 -24 5 -11 9 -15 9 -15 1z"/>
<path d="M1320 1495 c0 -8 2 -15 4 -15 2 0 6 7 10 15 3 8 1 15 -4 15 -6 0 -10
-7 -10 -15z"/>
<path d="M1346 1495 c-3 -8 -1 -15 4 -15 6 0 10 7 10 15 0 8 -2 15 -4 15 -2 0
-6 -7 -10 -15z"/>
<path d="M1370 1489 c0 -5 5 -7 10 -4 6 3 10 8 10 11 0 2 -4 4 -10 4 -5 0 -10
-5 -10 -11z"/>
<path d="M693 1500 c0 -36 2 -50 4 -32 2 17 2 47 0 65 -2 17 -4 3 -4 -33z"/>
<path d="M846 995 c4 -8 11 -15 16 -15 6 0 5 6 -2 15 -7 8 -14 15 -16 15 -2 0
-1 -7 2 -15z"/>
<path d="M790 941 c0 -6 5 -13 10 -16 6 -3 10 1 10 9 0 9 -4 16 -10 16 -5 0
-10 -4 -10 -9z"/>
<path d="M800 893 c0 -5 5 -15 10 -23 8 -12 10 -11 10 8 0 12 -4 22 -10 22 -5
0 -10 -3 -10 -7z"/>
<path d="M844 875 c-3 -8 -4 -20 -2 -27 3 -7 7 -1 10 15 6 29 1 36 -8 12z"/>
<path d="M866 875 c-3 -8 -1 -15 4 -15 6 0 10 7 10 15 0 8 -2 15 -4 15 -2 0
-6 -7 -10 -15z"/>
<path d="M920 880 c0 -5 5 -10 11 -10 5 0 7 5 4 10 -3 6 -8 10 -11 10 -2 0 -4
-4 -4 -10z"/>
<path d="M890 870 c0 -5 5 -10 10 -10 6 0 10 5 10 10 0 6 -4 10 -10 10 -5 0
-10 -4 -10 -10z"/>
<path d="M1653 1808 c6 -88 30 -151 64 -173 13 -9 27 -15 29 -12 2 2 7 31 10
65 9 79 -14 145 -60 173 -17 10 -35 19 -40 19 -5 0 -6 -32 -3 -72z"/>
<path d="M560 1761 c-55 -11 -78 -28 -85 -63 -4 -18 -12 -39 -17 -45 -18 -23
32 -15 77 12 35 20 85 80 85 101 0 5 -14 4 -60 -5z"/>
<path d="M1520 1756 c0 -27 70 -94 115 -109 25 -9 45 -15 45 -14 0 1 -8 25
-19 52 -20 54 -40 69 -103 78 -27 4 -38 2 -38 -7z"/>
<path d="M329 1673 c-15 -15 -30 -42 -34 -60 -7 -36 12 -150 28 -160 6 -3 21
6 34 21 26 31 30 95 10 179 l-12 49 -26 -29z"/>
<path d="M1762 1623 c-12 -70 -11 -81 2 -123 9 -26 34 -60 46 -60 13 0 33 137
26 174 -7 35 -36 76 -55 76 -4 0 -13 -30 -19 -67z"/>
<path d="M396 1601 c-4 -7 -5 -15 -2 -18 9 -9 19 4 14 18 -4 11 -6 11 -12 0z"/>
<path d="M1720 1601 c0 -5 5 -13 10 -16 6 -3 10 -2 10 4 0 5 -4 13 -10 16 -5
3 -10 2 -10 -4z"/>
<path d="M489 1570 c-63 -11 -81 -25 -106 -78 -12 -26 -21 -47 -20 -48 11 -9
105 30 128 52 31 30 66 85 52 83 -5 -1 -29 -5 -54 -9z"/>
<path d="M1590 1574 c0 -18 35 -67 62 -88 31 -22 107 -50 116 -42 2 2 -1 12
-7 23 -6 10 -15 31 -21 46 -6 17 -22 33 -42 41 -36 14 -108 28 -108 20z"/>
<path d="M223 1458 c-33 -41 -22 -105 32 -196 29 -47 33 -51 46 -36 32 39 8
146 -50 222 -14 19 -19 21 -28 10z"/>
<path d="M1864 1417 c-47 -77 -58 -120 -44 -162 6 -19 18 -35 25 -35 16 0 85
133 85 165 0 27 -20 85 -28 85 -4 0 -21 -24 -38 -53z"/>
<path d="M314 1394 c-10 -41 11 -50 23 -9 9 28 9 35 -3 35 -7 0 -17 -12 -20
-26z"/>
<path d="M406 1395 c-60 -35 -73 -55 -78 -112 l-5 -53 39 23 c42 23 82 80 93
135 8 37 3 38 -49 7z"/>
<path d="M1680 1395 c0 -38 35 -101 72 -128 55 -41 55 -41 50 16 -5 59 -26 88
-84 118 l-38 19 0 -25z"/>
<path d="M1795 1393 c11 -46 25 -51 25 -10 0 27 -4 37 -16 37 -13 0 -15 -6 -9
-27z"/>
<path d="M363 1197 c-12 -12 -28 -37 -38 -56 -14 -27 -15 -38 -5 -62 7 -16 10
-44 8 -63 -3 -28 -1 -33 9 -24 7 6 13 17 13 24 0 8 5 14 11 14 5 0 19 20 30
45 15 35 19 56 13 90 -8 55 -15 61 -41 32z"/>
<path d="M1736 1204 c-18 -46 -1 -142 30 -174 8 -8 22 -24 30 -35 15 -20 15
-19 9 3 -4 13 -1 45 6 72 12 49 12 50 -22 100 -37 54 -44 58 -53 34z"/>
<path d="M150 1169 c0 -29 7 -52 25 -74 24 -32 123 -111 129 -104 5 5 9 39 7
61 -1 24 -64 92 -118 129 l-43 30 0 -42z"/>
<path d="M1821 1178 c0 -18 4 -42 9 -53 6 -15 9 -8 9 27 1 26 -3 50 -9 53 -6
4 -10 -7 -9 -27z"/>
<path d="M295 1188 c-4 -9 -5 -29 -3 -45 l3 -28 12 31 c6 18 7 37 3 45 -7 11
-10 10 -15 -3z"/>
<path d="M1918 1165 c-65 -48 -98 -94 -98 -138 0 -21 4 -37 9 -37 14 0 105 74
130 105 20 27 31 105 14 105 -5 0 -29 -16 -55 -35z"/>
<path d="M347 975 c-21 -44 -22 -79 -2 -108 8 -13 17 -39 19 -58 3 -18 5 -36
6 -39 4 -17 39 92 39 122 1 38 -25 118 -38 118 -4 0 -15 -16 -24 -35z"/>
<path d="M1744 984 c-24 -36 -24 -125 1 -179 l18 -40 7 41 c3 23 14 53 24 68
15 23 15 32 5 64 -6 20 -18 45 -25 55 -12 18 -13 17 -30 -9z"/>
<path d="M140 946 c0 -43 42 -87 120 -127 41 -21 78 -39 83 -39 12 0 8 39 -8
71 -18 33 -71 70 -145 99 l-50 20 0 -24z"/>
<path d="M1930 945 c-71 -30 -136 -86 -145 -126 -4 -17 -5 -33 -2 -35 3 -3 38
10 79 29 83 38 128 83 128 128 0 16 -1 29 -2 28 -2 0 -28 -11 -58 -24z"/>
<path d="M311 944 c0 -11 3 -14 6 -6 3 7 2 16 -1 19 -3 4 -6 -2 -5 -13z"/>
<path d="M447 769 c-30 -91 -15 -189 27 -189 20 0 49 103 41 142 -9 39 -36 98
-45 98 -4 0 -14 -23 -23 -51z"/>
<path d="M1646 795 c-28 -43 -33 -133 -9 -179 l19 -37 24 19 c20 16 23 27 23
83 0 44 -7 77 -20 103 l-19 38 -18 -27z"/>
<path d="M181 737 c17 -37 63 -58 139 -64 78 -7 87 1 46 42 -28 28 -84 45
-148 45 -46 0 -47 -1 -37 -23z"/>
<path d="M1817 746 c-46 -17 -63 -31 -70 -56 -5 -18 0 -20 46 -19 76 1 126 19
155 57 l25 32 -59 0 c-33 -1 -76 -7 -97 -14z"/>
<path d="M370 741 c0 -5 6 -14 14 -20 12 -10 13 -8 9 8 -5 21 -23 30 -23 12z"/>
<path d="M1745 739 c-11 -17 1 -21 15 -4 8 9 8 15 2 15 -6 0 -14 -5 -17 -11z"/>
<path d="M1721 654 c0 -11 3 -14 6 -6 3 7 2 16 -1 19 -3 4 -6 -2 -5 -13z"/>
<path d="M576 652 c-11 -18 -18 -93 -12 -126 7 -34 29 -66 46 -66 14 0 30 85
21 116 -20 68 -42 97 -55 76z"/>
<path d="M1536 653 c-32 -32 -44 -117 -25 -172 11 -30 12 -31 30 -15 25 23 39
97 27 142 -11 42 -21 56 -32 45z"/>
<path d="M302 602 l-22 -3 19 -28 c23 -32 78 -51 145 -51 48 0 53 5 33 31 -25
33 -116 60 -175 51z"/>
<path d="M1778 600 c-69 -7 -110 -26 -128 -60 -10 -19 -8 -20 42 -19 69 0 116
18 141 51 12 15 19 29 16 31 -2 1 -34 0 -71 -3z"/>
<path d="M710 499 c0 -55 13 -89 34 -89 8 0 19 -7 26 -15 7 -8 16 -15 21 -15
12 0 11 53 -2 87 -11 29 -57 83 -71 83 -4 0 -8 -23 -8 -51z"/>
<path d="M1372 514 c-33 -40 -43 -73 -33 -111 6 -23 8 -24 20 -9 7 9 19 16 26
16 23 0 38 30 40 85 3 67 -10 71 -53 19z"/>
<path d="M500 522 c0 -14 8 -26 23 -31 33 -13 34 -4 4 27 -27 26 -27 26 -27 4z"/>
<path d="M1607 514 c-16 -21 -16 -24 -2 -24 16 0 30 22 23 39 -1 5 -11 -2 -21
-15z"/>
<path d="M420 451 l-45 -18 35 -22 c41 -25 57 -26 129 -7 67 18 71 23 42 47
-30 24 -100 24 -161 0z"/>
<path d="M1552 454 c-12 -8 -22 -19 -22 -23 0 -5 28 -16 61 -26 69 -19 118
-14 143 14 16 18 15 19 -30 35 -60 20 -123 21 -152 0z"/>
<path d="M628 413 c7 -3 16 -2 19 1 4 3 -2 6 -13 5 -11 0 -14 -3 -6 -6z"/>
<path d="M870 384 c46 -53 62 -63 88 -53 13 5 35 9 50 9 l27 0 -32 32 c-28 27
-41 32 -95 36 l-63 4 25 -28z"/>
<path d="M1158 394 c-15 -8 -32 -23 -38 -34 -9 -18 -8 -20 15 -20 15 0 34 -4
44 -10 22 -11 50 6 81 50 l21 30 -48 0 c-26 -1 -60 -7 -75 -16z"/>
<path d="M655 395 c-5 -2 -29 -9 -52 -15 -24 -6 -43 -14 -43 -18 0 -15 59 -42
92 -42 40 0 128 28 128 40 0 27 -83 50 -125 35z"/>
<path d="M1378 384 c-16 -8 -28 -19 -28 -23 0 -13 88 -41 128 -41 32 0 92 27
92 41 0 11 -96 39 -132 39 -18 -1 -45 -8 -60 -16z"/>
<path d="M791 341 c-16 -10 -3 -16 72 -30 60 -11 72 4 15 19 -24 6 -50 13 -58
15 -8 3 -21 1 -29 -4z"/>
<path d="M1275 339 c-54 -13 -69 -29 -24 -28 33 1 126 26 102 28 -6 1 -17 3
-25 5 -7 2 -31 0 -53 -5z"/>
<path d="M919 291 c-42 -26 -89 -74 -89 -90 0 -4 27 -4 60 -1 54 5 64 10 105
50 25 24 45 50 45 57 0 24 -73 15 -121 -16z"/>
<path d="M1090 310 c0 -14 59 -79 84 -92 31 -17 126 -27 126 -13 0 12 -46 57
-94 93 -30 23 -116 32 -116 12z"/>
<path d="M821 151 c-22 -30 -27 -51 -13 -51 4 0 26 18 47 40 39 40 39 40 13
40 -18 0 -33 -10 -47 -29z"/>
<path d="M1250 176 c0 -11 65 -76 77 -76 21 0 15 22 -14 52 -22 23 -63 39 -63
24z"/>
</g>
</svg>
